# xmcd CD database file
#
# Track frame offsets:
#	182
#	13935
#	30985
#	46677
#	60340
#	78700
#	93847
#	111712
#	125867
#	144782
#
# Disc length: 2157 seconds
#
# Revision: 2
# Processed by: cddbd v1.5.1PL0 Copyright (c) Steve Scherf et al.
# Submitted via: CDex 1.51
#
DISCID=7e086b0a
DTITLE=George Ducas - George Ducas
DYEAR=1900
DGENRE=Country
TTITLE0=Teardrops
TTITLE1=Kisses Don't Lie
TTITLE2=Hello Cruel World
TTITLE3=My World Stopped Turning
TTITLE4=Lipstick Promises
TTITLE5=Shame On Me
TTITLE6=Waiting And Wishing
TTITLE7=In No Time At All
TTITLE8=Only In My Dreams
TTITLE9=It Ain't Me
EXTD=
EXTT0=
EXTT1=
EXTT2=
EXTT3=
EXTT4=
EXTT5=
EXTT6=
EXTT7=
EXTT8=
EXTT9=
PLAYORDER=
